<?xml version="1.0" standalone="no"?>
<!DOCTYPE svg PUBLIC "-//W3C//DTD SVG 20010904//EN"
 "http://www.w3.org/TR/2001/REC-SVG-20010904/DTD/svg10.dtd">
<svg version="1.0" xmlns="http://www.w3.org/2000/svg"
 width="500.000000pt" height="500.000000pt" viewBox="0 0 500.000000 500.000000"
 preserveAspectRatio="xMidYMid meet">
<metadata>
Created by potrace 1.14, written by Peter Selinger 2001-2017
</metadata>
<g transform="translate(0.000000,500.000000) scale(0.100000,-0.100000)"
fill="#000000" stroke="none">
<path d="M0 2500 l0 -2500 2500 0 2500 0 0 2500 0 2500 -2500 0 -2500 0 0
-2500z m3210 1843 c-503 -483 -665 -916 -497 -1333 56 -138 165 -297 381 -555
281 -336 376 -537 376 -794 0 -395 -250 -738 -698 -961 -165 -82 -252 -106
-252 -70 0 6 50 63 112 128 270 283 394 466 454 669 21 71 26 109 26 198 0
141 -28 242 -115 415 l-63 125 -562 3 -562 2 -2 -612 -3 -613 -142 -3 -143 -3
0 1256 0 1255 145 0 145 0 0 -540 0 -540 491 0 c389 0 489 3 483 13 -4 6 -24
37 -45 67 -164 246 -253 443 -284 635 -19 115 -19 196 0 314 59 363 311 703
756 1022 95 68 114 78 122 64 7 -13 -19 -42 -123 -142z"/>
</g>
</svg>
